<mxfile host="app.diagrams.net" agent="Mozilla/5.0 (X11; Ubuntu; Linux x86_64; rv:133.0) Gecko/20100101 Firefox/133.0" version="26.1.1">
  <diagram name="Page-1" id="E1THIllQ47njp4CXYvg_">
    <mxGraphModel dx="1366" dy="783" grid="1" gridSize="10" guides="1" tooltips="1" connect="1" arrows="1" fold="1" page="1" pageScale="1" pageWidth="850" pageHeight="1100" math="0" shadow="0">
      <root>
        <mxCell id="0" />
        <mxCell id="1" parent="0" />
        <mxCell id="yTOJs4qH4SKKXYz4oZ4m-1" value="" style="rounded=0;whiteSpace=wrap;html=1;" vertex="1" parent="1">
          <mxGeometry x="190" y="140" width="455.36" height="510" as="geometry" />
        </mxCell>
        <mxCell id="yTOJs4qH4SKKXYz4oZ4m-2" value="top_noDUT" style="text;html=1;align=center;verticalAlign=middle;resizable=0;points=[];autosize=1;strokeColor=none;fillColor=none;" vertex="1" parent="1">
          <mxGeometry x="190" y="140" width="80" height="30" as="geometry" />
        </mxCell>
        <mxCell id="yTOJs4qH4SKKXYz4oZ4m-3" value="" style="rounded=0;whiteSpace=wrap;html=1;" vertex="1" parent="1">
          <mxGeometry x="212.68" y="210" width="410" height="410" as="geometry" />
        </mxCell>
        <mxCell id="yTOJs4qH4SKKXYz4oZ4m-4" value="test" style="text;html=1;align=center;verticalAlign=middle;resizable=0;points=[];autosize=1;strokeColor=none;fillColor=none;" vertex="1" parent="1">
          <mxGeometry x="210" y="210" width="40" height="30" as="geometry" />
        </mxCell>
        <mxCell id="yTOJs4qH4SKKXYz4oZ4m-5" value="" style="rounded=0;whiteSpace=wrap;html=1;" vertex="1" parent="1">
          <mxGeometry x="241" y="250" width="350" height="350" as="geometry" />
        </mxCell>
        <mxCell id="yTOJs4qH4SKKXYz4oZ4m-6" value="tb" style="text;html=1;align=center;verticalAlign=middle;resizable=0;points=[];autosize=1;strokeColor=none;fillColor=none;" vertex="1" parent="1">
          <mxGeometry x="241" y="250" width="30" height="30" as="geometry" />
        </mxCell>
        <mxCell id="yTOJs4qH4SKKXYz4oZ4m-7" value="" style="rounded=0;whiteSpace=wrap;html=1;" vertex="1" parent="1">
          <mxGeometry x="480" y="270" width="87.32" height="40" as="geometry" />
        </mxCell>
        <mxCell id="yTOJs4qH4SKKXYz4oZ4m-8" value="scb" style="text;html=1;align=center;verticalAlign=middle;resizable=0;points=[];autosize=1;strokeColor=none;fillColor=none;" vertex="1" parent="1">
          <mxGeometry x="480" y="270" width="40" height="30" as="geometry" />
        </mxCell>
        <mxCell id="yTOJs4qH4SKKXYz4oZ4m-12" value="" style="whiteSpace=wrap;html=1;aspect=fixed;" vertex="1" parent="1">
          <mxGeometry x="286" y="330" width="260" height="260" as="geometry" />
        </mxCell>
        <mxCell id="yTOJs4qH4SKKXYz4oZ4m-13" value="uart_uvc" style="text;html=1;align=center;verticalAlign=middle;resizable=0;points=[];autosize=1;strokeColor=none;fillColor=none;" vertex="1" parent="1">
          <mxGeometry x="286" y="330" width="70" height="30" as="geometry" />
        </mxCell>
        <mxCell id="yTOJs4qH4SKKXYz4oZ4m-14" value="" style="whiteSpace=wrap;html=1;aspect=fixed;" vertex="1" parent="1">
          <mxGeometry x="310" y="410" width="100" height="100" as="geometry" />
        </mxCell>
        <mxCell id="yTOJs4qH4SKKXYz4oZ4m-15" value="" style="whiteSpace=wrap;html=1;aspect=fixed;" vertex="1" parent="1">
          <mxGeometry x="425" y="410" width="100" height="100" as="geometry" />
        </mxCell>
        <mxCell id="yTOJs4qH4SKKXYz4oZ4m-16" value="tx_agent" style="text;html=1;align=center;verticalAlign=middle;resizable=0;points=[];autosize=1;strokeColor=none;fillColor=none;" vertex="1" parent="1">
          <mxGeometry x="417" y="400" width="70" height="30" as="geometry" />
        </mxCell>
        <mxCell id="yTOJs4qH4SKKXYz4oZ4m-17" value="rx_agent" style="text;html=1;align=center;verticalAlign=middle;resizable=0;points=[];autosize=1;strokeColor=none;fillColor=none;" vertex="1" parent="1">
          <mxGeometry x="306" y="400" width="70" height="30" as="geometry" />
        </mxCell>
        <mxCell id="yTOJs4qH4SKKXYz4oZ4m-18" value="" style="whiteSpace=wrap;html=1;aspect=fixed;" vertex="1" parent="1">
          <mxGeometry x="316" y="470" width="30" height="30" as="geometry" />
        </mxCell>
        <mxCell id="yTOJs4qH4SKKXYz4oZ4m-19" value="drv" style="text;html=1;align=center;verticalAlign=middle;resizable=0;points=[];autosize=1;strokeColor=none;fillColor=none;" vertex="1" parent="1">
          <mxGeometry x="310" y="467" width="40" height="30" as="geometry" />
        </mxCell>
        <mxCell id="yTOJs4qH4SKKXYz4oZ4m-20" value="" style="whiteSpace=wrap;html=1;aspect=fixed;" vertex="1" parent="1">
          <mxGeometry x="316" y="437" width="30" height="30" as="geometry" />
        </mxCell>
        <mxCell id="yTOJs4qH4SKKXYz4oZ4m-21" value="" style="whiteSpace=wrap;html=1;aspect=fixed;" vertex="1" parent="1">
          <mxGeometry x="370" y="470" width="30" height="30" as="geometry" />
        </mxCell>
        <mxCell id="yTOJs4qH4SKKXYz4oZ4m-22" value="" style="whiteSpace=wrap;html=1;aspect=fixed;" vertex="1" parent="1">
          <mxGeometry x="433" y="473" width="30" height="30" as="geometry" />
        </mxCell>
        <mxCell id="yTOJs4qH4SKKXYz4oZ4m-23" value="" style="whiteSpace=wrap;html=1;aspect=fixed;" vertex="1" parent="1">
          <mxGeometry x="433" y="440" width="30" height="30" as="geometry" />
        </mxCell>
        <mxCell id="yTOJs4qH4SKKXYz4oZ4m-24" value="" style="whiteSpace=wrap;html=1;aspect=fixed;" vertex="1" parent="1">
          <mxGeometry x="487" y="473" width="30" height="30" as="geometry" />
        </mxCell>
        <mxCell id="yTOJs4qH4SKKXYz4oZ4m-25" value="drv" style="text;html=1;align=center;verticalAlign=middle;resizable=0;points=[];autosize=1;strokeColor=none;fillColor=none;" vertex="1" parent="1">
          <mxGeometry x="428" y="473" width="40" height="30" as="geometry" />
        </mxCell>
        <mxCell id="yTOJs4qH4SKKXYz4oZ4m-26" value="mon" style="text;html=1;align=center;verticalAlign=middle;resizable=0;points=[];autosize=1;strokeColor=none;fillColor=none;" vertex="1" parent="1">
          <mxGeometry x="360" y="470" width="50" height="30" as="geometry" />
        </mxCell>
        <mxCell id="yTOJs4qH4SKKXYz4oZ4m-27" value="mon" style="text;html=1;align=center;verticalAlign=middle;resizable=0;points=[];autosize=1;strokeColor=none;fillColor=none;" vertex="1" parent="1">
          <mxGeometry x="477" y="473" width="50" height="30" as="geometry" />
        </mxCell>
        <mxCell id="yTOJs4qH4SKKXYz4oZ4m-28" value="seqr" style="text;html=1;align=center;verticalAlign=middle;resizable=0;points=[];autosize=1;strokeColor=none;fillColor=none;" vertex="1" parent="1">
          <mxGeometry x="306" y="437" width="50" height="30" as="geometry" />
        </mxCell>
        <mxCell id="yTOJs4qH4SKKXYz4oZ4m-29" value="seqr" style="text;html=1;align=center;verticalAlign=middle;resizable=0;points=[];autosize=1;strokeColor=none;fillColor=none;" vertex="1" parent="1">
          <mxGeometry x="423" y="437" width="50" height="30" as="geometry" />
        </mxCell>
        <mxCell id="yTOJs4qH4SKKXYz4oZ4m-30" value="if" style="rounded=0;whiteSpace=wrap;html=1;" vertex="1" parent="1">
          <mxGeometry x="337.68" y="550" width="160" height="30" as="geometry" />
        </mxCell>
        <mxCell id="yTOJs4qH4SKKXYz4oZ4m-31" value="" style="shape=flexArrow;endArrow=classic;startArrow=classic;html=1;rounded=0;entryX=0.5;entryY=1;entryDx=0;entryDy=0;exitX=0.147;exitY=-0.007;exitDx=0;exitDy=0;exitPerimeter=0;startWidth=11.6;startSize=3.38;endWidth=6.8;endSize=3.38;" edge="1" parent="1" source="yTOJs4qH4SKKXYz4oZ4m-30" target="yTOJs4qH4SKKXYz4oZ4m-14">
          <mxGeometry width="100" height="100" relative="1" as="geometry">
            <mxPoint x="520" y="530" as="sourcePoint" />
            <mxPoint x="620" y="430" as="targetPoint" />
          </mxGeometry>
        </mxCell>
        <mxCell id="yTOJs4qH4SKKXYz4oZ4m-32" value="" style="shape=flexArrow;endArrow=classic;startArrow=classic;html=1;rounded=0;entryX=0.5;entryY=1;entryDx=0;entryDy=0;exitX=0.185;exitY=0.013;exitDx=0;exitDy=0;exitPerimeter=0;startWidth=11.6;startSize=3.38;endWidth=6.8;endSize=3.38;" edge="1" parent="1">
          <mxGeometry width="100" height="100" relative="1" as="geometry">
            <mxPoint x="468" y="550" as="sourcePoint" />
            <mxPoint x="468" y="510" as="targetPoint" />
          </mxGeometry>
        </mxCell>
        <mxCell id="yTOJs4qH4SKKXYz4oZ4m-35" value="" style="rounded=0;whiteSpace=wrap;html=1;" vertex="1" parent="1">
          <mxGeometry x="197" y="740" width="455.36" height="960" as="geometry" />
        </mxCell>
        <mxCell id="yTOJs4qH4SKKXYz4oZ4m-36" value="top_DUT" style="text;html=1;align=center;verticalAlign=middle;resizable=0;points=[];autosize=1;strokeColor=none;fillColor=none;" vertex="1" parent="1">
          <mxGeometry x="202" y="740" width="70" height="30" as="geometry" />
        </mxCell>
        <mxCell id="yTOJs4qH4SKKXYz4oZ4m-37" value="" style="rounded=0;whiteSpace=wrap;html=1;" vertex="1" parent="1">
          <mxGeometry x="219.68" y="810" width="410" height="860" as="geometry" />
        </mxCell>
        <mxCell id="yTOJs4qH4SKKXYz4oZ4m-38" value="test" style="text;html=1;align=center;verticalAlign=middle;resizable=0;points=[];autosize=1;strokeColor=none;fillColor=none;" vertex="1" parent="1">
          <mxGeometry x="217" y="810" width="40" height="30" as="geometry" />
        </mxCell>
        <mxCell id="yTOJs4qH4SKKXYz4oZ4m-39" value="" style="rounded=0;whiteSpace=wrap;html=1;" vertex="1" parent="1">
          <mxGeometry x="248" y="850" width="350" height="800" as="geometry" />
        </mxCell>
        <mxCell id="yTOJs4qH4SKKXYz4oZ4m-40" value="tb" style="text;html=1;align=center;verticalAlign=middle;resizable=0;points=[];autosize=1;strokeColor=none;fillColor=none;" vertex="1" parent="1">
          <mxGeometry x="248" y="850" width="30" height="30" as="geometry" />
        </mxCell>
        <mxCell id="yTOJs4qH4SKKXYz4oZ4m-41" value="" style="rounded=0;whiteSpace=wrap;html=1;" vertex="1" parent="1">
          <mxGeometry x="487" y="870" width="87.32" height="40" as="geometry" />
        </mxCell>
        <mxCell id="yTOJs4qH4SKKXYz4oZ4m-42" value="scb" style="text;html=1;align=center;verticalAlign=middle;resizable=0;points=[];autosize=1;strokeColor=none;fillColor=none;" vertex="1" parent="1">
          <mxGeometry x="487" y="870" width="40" height="30" as="geometry" />
        </mxCell>
        <mxCell id="yTOJs4qH4SKKXYz4oZ4m-43" value="" style="whiteSpace=wrap;html=1;aspect=fixed;" vertex="1" parent="1">
          <mxGeometry x="293" y="930" width="260" height="260" as="geometry" />
        </mxCell>
        <mxCell id="yTOJs4qH4SKKXYz4oZ4m-44" value="uart_uvc" style="text;html=1;align=center;verticalAlign=middle;resizable=0;points=[];autosize=1;strokeColor=none;fillColor=none;" vertex="1" parent="1">
          <mxGeometry x="293" y="930" width="70" height="30" as="geometry" />
        </mxCell>
        <mxCell id="yTOJs4qH4SKKXYz4oZ4m-45" value="" style="whiteSpace=wrap;html=1;aspect=fixed;" vertex="1" parent="1">
          <mxGeometry x="317" y="1010" width="100" height="100" as="geometry" />
        </mxCell>
        <mxCell id="yTOJs4qH4SKKXYz4oZ4m-46" value="" style="whiteSpace=wrap;html=1;aspect=fixed;" vertex="1" parent="1">
          <mxGeometry x="432" y="1010" width="100" height="100" as="geometry" />
        </mxCell>
        <mxCell id="yTOJs4qH4SKKXYz4oZ4m-47" value="tx_agent" style="text;html=1;align=center;verticalAlign=middle;resizable=0;points=[];autosize=1;strokeColor=none;fillColor=none;" vertex="1" parent="1">
          <mxGeometry x="424" y="1000" width="70" height="30" as="geometry" />
        </mxCell>
        <mxCell id="yTOJs4qH4SKKXYz4oZ4m-48" value="rx_agent" style="text;html=1;align=center;verticalAlign=middle;resizable=0;points=[];autosize=1;strokeColor=none;fillColor=none;" vertex="1" parent="1">
          <mxGeometry x="313" y="1000" width="70" height="30" as="geometry" />
        </mxCell>
        <mxCell id="yTOJs4qH4SKKXYz4oZ4m-49" value="" style="whiteSpace=wrap;html=1;aspect=fixed;" vertex="1" parent="1">
          <mxGeometry x="323" y="1070" width="30" height="30" as="geometry" />
        </mxCell>
        <mxCell id="yTOJs4qH4SKKXYz4oZ4m-50" value="drv" style="text;html=1;align=center;verticalAlign=middle;resizable=0;points=[];autosize=1;strokeColor=none;fillColor=none;" vertex="1" parent="1">
          <mxGeometry x="317" y="1067" width="40" height="30" as="geometry" />
        </mxCell>
        <mxCell id="yTOJs4qH4SKKXYz4oZ4m-51" value="" style="whiteSpace=wrap;html=1;aspect=fixed;" vertex="1" parent="1">
          <mxGeometry x="323" y="1037" width="30" height="30" as="geometry" />
        </mxCell>
        <mxCell id="yTOJs4qH4SKKXYz4oZ4m-52" value="" style="whiteSpace=wrap;html=1;aspect=fixed;" vertex="1" parent="1">
          <mxGeometry x="377" y="1070" width="30" height="30" as="geometry" />
        </mxCell>
        <mxCell id="yTOJs4qH4SKKXYz4oZ4m-53" value="" style="whiteSpace=wrap;html=1;aspect=fixed;" vertex="1" parent="1">
          <mxGeometry x="440" y="1073" width="30" height="30" as="geometry" />
        </mxCell>
        <mxCell id="yTOJs4qH4SKKXYz4oZ4m-54" value="" style="whiteSpace=wrap;html=1;aspect=fixed;" vertex="1" parent="1">
          <mxGeometry x="440" y="1040" width="30" height="30" as="geometry" />
        </mxCell>
        <mxCell id="yTOJs4qH4SKKXYz4oZ4m-55" value="" style="whiteSpace=wrap;html=1;aspect=fixed;" vertex="1" parent="1">
          <mxGeometry x="494" y="1073" width="30" height="30" as="geometry" />
        </mxCell>
        <mxCell id="yTOJs4qH4SKKXYz4oZ4m-56" value="drv" style="text;html=1;align=center;verticalAlign=middle;resizable=0;points=[];autosize=1;strokeColor=none;fillColor=none;" vertex="1" parent="1">
          <mxGeometry x="435" y="1073" width="40" height="30" as="geometry" />
        </mxCell>
        <mxCell id="yTOJs4qH4SKKXYz4oZ4m-57" value="mon" style="text;html=1;align=center;verticalAlign=middle;resizable=0;points=[];autosize=1;strokeColor=none;fillColor=none;" vertex="1" parent="1">
          <mxGeometry x="367" y="1067" width="50" height="30" as="geometry" />
        </mxCell>
        <mxCell id="yTOJs4qH4SKKXYz4oZ4m-58" value="mon" style="text;html=1;align=center;verticalAlign=middle;resizable=0;points=[];autosize=1;strokeColor=none;fillColor=none;" vertex="1" parent="1">
          <mxGeometry x="484" y="1073" width="50" height="30" as="geometry" />
        </mxCell>
        <mxCell id="yTOJs4qH4SKKXYz4oZ4m-59" value="seqr" style="text;html=1;align=center;verticalAlign=middle;resizable=0;points=[];autosize=1;strokeColor=none;fillColor=none;" vertex="1" parent="1">
          <mxGeometry x="313" y="1037" width="50" height="30" as="geometry" />
        </mxCell>
        <mxCell id="yTOJs4qH4SKKXYz4oZ4m-60" value="seqr" style="text;html=1;align=center;verticalAlign=middle;resizable=0;points=[];autosize=1;strokeColor=none;fillColor=none;" vertex="1" parent="1">
          <mxGeometry x="430" y="1037" width="50" height="30" as="geometry" />
        </mxCell>
        <mxCell id="yTOJs4qH4SKKXYz4oZ4m-61" value="if" style="rounded=0;whiteSpace=wrap;html=1;" vertex="1" parent="1">
          <mxGeometry x="343" y="1250" width="160" height="30" as="geometry" />
        </mxCell>
        <mxCell id="yTOJs4qH4SKKXYz4oZ4m-62" value="" style="shape=flexArrow;endArrow=classic;startArrow=classic;html=1;rounded=0;entryX=0.5;entryY=1;entryDx=0;entryDy=0;exitX=0.147;exitY=-0.007;exitDx=0;exitDy=0;exitPerimeter=0;startWidth=11.6;startSize=3.38;endWidth=6.8;endSize=3.38;" edge="1" parent="1" source="yTOJs4qH4SKKXYz4oZ4m-61" target="yTOJs4qH4SKKXYz4oZ4m-45">
          <mxGeometry width="100" height="100" relative="1" as="geometry">
            <mxPoint x="527" y="1130" as="sourcePoint" />
            <mxPoint x="627" y="1030" as="targetPoint" />
          </mxGeometry>
        </mxCell>
        <mxCell id="yTOJs4qH4SKKXYz4oZ4m-64" value="&lt;font style=&quot;font-size: 8px;&quot;&gt;&lt;u&gt;active&lt;/u&gt;&lt;/font&gt;" style="text;html=1;align=center;verticalAlign=middle;whiteSpace=wrap;rounded=0;" vertex="1" parent="1">
          <mxGeometry x="350" y="430" width="60" height="30" as="geometry" />
        </mxCell>
        <mxCell id="yTOJs4qH4SKKXYz4oZ4m-65" value="&lt;font style=&quot;font-size: 8px;&quot;&gt;&lt;u&gt;active&lt;/u&gt;&lt;/font&gt;" style="text;html=1;align=center;verticalAlign=middle;whiteSpace=wrap;rounded=0;" vertex="1" parent="1">
          <mxGeometry x="470" y="430" width="60" height="30" as="geometry" />
        </mxCell>
        <mxCell id="yTOJs4qH4SKKXYz4oZ4m-69" value="" style="whiteSpace=wrap;html=1;aspect=fixed;" vertex="1" parent="1">
          <mxGeometry x="293" y="1370" width="260" height="260" as="geometry" />
        </mxCell>
        <mxCell id="yTOJs4qH4SKKXYz4oZ4m-71" value="uart_uvc" style="text;html=1;align=center;verticalAlign=middle;resizable=0;points=[];autosize=1;strokeColor=none;fillColor=none;" vertex="1" parent="1">
          <mxGeometry x="293" y="1600" width="70" height="30" as="geometry" />
        </mxCell>
        <mxCell id="yTOJs4qH4SKKXYz4oZ4m-72" value="" style="whiteSpace=wrap;html=1;aspect=fixed;" vertex="1" parent="1">
          <mxGeometry x="317" y="1390" width="100" height="100" as="geometry" />
        </mxCell>
        <mxCell id="yTOJs4qH4SKKXYz4oZ4m-73" value="rx_agent" style="text;html=1;align=center;verticalAlign=middle;resizable=0;points=[];autosize=1;strokeColor=none;fillColor=none;" vertex="1" parent="1">
          <mxGeometry x="313" y="1460" width="70" height="30" as="geometry" />
        </mxCell>
        <mxCell id="yTOJs4qH4SKKXYz4oZ4m-78" value="drv" style="whiteSpace=wrap;html=1;aspect=fixed;" vertex="1" parent="1">
          <mxGeometry x="322" y="1400" width="30" height="30" as="geometry" />
        </mxCell>
        <mxCell id="yTOJs4qH4SKKXYz4oZ4m-79" value="mon" style="whiteSpace=wrap;html=1;aspect=fixed;" vertex="1" parent="1">
          <mxGeometry x="370" y="1400" width="30" height="30" as="geometry" />
        </mxCell>
        <mxCell id="yTOJs4qH4SKKXYz4oZ4m-80" value="seqr" style="whiteSpace=wrap;html=1;aspect=fixed;" vertex="1" parent="1">
          <mxGeometry x="323" y="1435" width="30" height="30" as="geometry" />
        </mxCell>
        <mxCell id="yTOJs4qH4SKKXYz4oZ4m-81" value="" style="whiteSpace=wrap;html=1;aspect=fixed;" vertex="1" parent="1">
          <mxGeometry x="434" y="1390" width="100" height="100" as="geometry" />
        </mxCell>
        <mxCell id="yTOJs4qH4SKKXYz4oZ4m-82" value="tx_agent" style="text;html=1;align=center;verticalAlign=middle;resizable=0;points=[];autosize=1;strokeColor=none;fillColor=none;" vertex="1" parent="1">
          <mxGeometry x="430" y="1460" width="70" height="30" as="geometry" />
        </mxCell>
        <mxCell id="yTOJs4qH4SKKXYz4oZ4m-83" value="drv" style="whiteSpace=wrap;html=1;aspect=fixed;" vertex="1" parent="1">
          <mxGeometry x="439" y="1400" width="30" height="30" as="geometry" />
        </mxCell>
        <mxCell id="yTOJs4qH4SKKXYz4oZ4m-84" value="mon" style="whiteSpace=wrap;html=1;aspect=fixed;" vertex="1" parent="1">
          <mxGeometry x="487" y="1400" width="30" height="30" as="geometry" />
        </mxCell>
        <mxCell id="yTOJs4qH4SKKXYz4oZ4m-85" value="seqr" style="whiteSpace=wrap;html=1;aspect=fixed;" vertex="1" parent="1">
          <mxGeometry x="440" y="1435" width="30" height="30" as="geometry" />
        </mxCell>
        <mxCell id="yTOJs4qH4SKKXYz4oZ4m-86" value="&lt;u&gt;passive&lt;/u&gt;" style="text;html=1;align=center;verticalAlign=middle;whiteSpace=wrap;rounded=0;fontSize=13;" vertex="1" parent="1">
          <mxGeometry x="467" y="1020" width="60" height="30" as="geometry" />
        </mxCell>
        <mxCell id="yTOJs4qH4SKKXYz4oZ4m-87" value="&lt;font&gt;&lt;u&gt;active&lt;/u&gt;&lt;/font&gt;" style="text;html=1;align=center;verticalAlign=middle;whiteSpace=wrap;rounded=0;fontSize=13;" vertex="1" parent="1">
          <mxGeometry x="357" y="1020" width="60" height="30" as="geometry" />
        </mxCell>
        <mxCell id="yTOJs4qH4SKKXYz4oZ4m-88" value="&lt;u&gt;passive&lt;/u&gt;" style="text;html=1;align=center;verticalAlign=middle;whiteSpace=wrap;rounded=0;fontSize=13;" vertex="1" parent="1">
          <mxGeometry x="355" y="1435" width="60" height="30" as="geometry" />
        </mxCell>
        <mxCell id="yTOJs4qH4SKKXYz4oZ4m-89" value="&lt;font&gt;&lt;u&gt;active&lt;/u&gt;&lt;/font&gt;" style="text;html=1;align=center;verticalAlign=middle;whiteSpace=wrap;rounded=0;fontSize=13;" vertex="1" parent="1">
          <mxGeometry x="470" y="1435" width="60" height="30" as="geometry" />
        </mxCell>
        <mxCell id="yTOJs4qH4SKKXYz4oZ4m-90" value="" style="shape=flexArrow;endArrow=classic;startArrow=classic;html=1;rounded=0;entryX=0.861;entryY=1;entryDx=0;entryDy=0;exitX=0.827;exitY=0.067;exitDx=0;exitDy=0;startWidth=11.6;startSize=3.38;endWidth=6.8;endSize=3.38;exitPerimeter=0;entryPerimeter=0;" edge="1" parent="1" target="yTOJs4qH4SKKXYz4oZ4m-61">
          <mxGeometry width="100" height="100" relative="1" as="geometry">
            <mxPoint x="482" y="1390" as="sourcePoint" />
            <mxPoint x="480" y="1288" as="targetPoint" />
          </mxGeometry>
        </mxCell>
      </root>
    </mxGraphModel>
  </diagram>
</mxfile>
